<?xml version="1.0" standalone="no"?>
<!DOCTYPE svg PUBLIC "-//W3C//DTD SVG 20010904//EN"
 "http://www.w3.org/TR/2001/REC-SVG-20010904/DTD/svg10.dtd">
<svg version="1.0" xmlns="http://www.w3.org/2000/svg"
 width="600.000000pt" height="600.000000pt" viewBox="0 0 600.000000 600.000000"
 preserveAspectRatio="xMidYMid meet">
<metadata>
Created by potrace 1.11, written by Peter Selinger 2001-2013
</metadata>
<g transform="translate(0.000000,600.000000) scale(0.100000,-0.100000)"
fill="#000000" stroke="none">
<path d="M3567 4833 c-8 -10 -176 -420 -373 -912 l-358 -895 -12 62 c-17 83
-56 152 -121 213 -161 152 -406 152 -568 -2 -58 -55 -109 -142 -120 -207 -4
-28 -13 -41 -30 -48 -13 -5 -439 -403 -946 -884 -508 -481 -938 -889 -956
-906 -36 -34 -42 -64 -17 -88 14 -14 294 -16 2933 -16 2889 0 2918 0 2936 20
9 10 15 28 13 38 -7 24 -2306 3624 -2322 3634 -19 13 -42 9 -59 -9z m1147
-1871 l1094 -1712 -2791 0 -2792 0 30 29 c17 15 374 353 795 751 421 398 802
759 846 803 l82 79 187 -563 c103 -310 194 -572 203 -581 18 -22 40 -23 62 -3
9 8 277 667 595 1464 319 798 583 1450 588 1448 4 -1 500 -773 1101 -1715z
m-2160 -643 c-80 -200 -147 -365 -149 -367 -2 -2 -56 155 -120 348 -64 193
-115 353 -113 356 3 2 25 -7 51 -21 71 -40 178 -59 257 -45 70 12 150 45 190
78 14 11 26 19 27 18 2 -1 -63 -166 -143 -367z"/>
</g>
</svg>
